<?xml version="1.0" encoding="utf-8"?>
<!-- Generator: Adobe Illustrator 25.3.1, SVG Export Plug-In . SVG Version: 6.00 Build 0)  -->
<svg version="1.1" id="Calque_1" xmlns="http://www.w3.org/2000/svg" xmlns:xlink="http://www.w3.org/1999/xlink" x="0px" y="0px"
	 viewBox="0 0 470 309" style="enable-background:new 0 0 470 309;" xml:space="preserve">
<style type="text/css">
	.st0{fill:#C2D8F0;}
	.st1{fill:#ED5353;}
	.st2{fill:#0D3B6E;}
	.st3{fill:#0A2B52;}
	.st4{fill:url(#SVGID_1_);}
	.st5{fill:#13549C;}
	.st6{fill:#1A77DE;}
	.st7{fill:#1257A1;}
	.st8{fill:#1563B8;}
	.st9{fill:#FFFFFF;}
	.st10{fill:#C24444;}
	.st11{opacity:0.27;fill:#1257A1;}
	.st12{fill:#343456;}
	.st13{fill:#233B6E;}
	.st14{fill:#F0A711;}
	.st15{fill:#27427A;}
	.st16{fill:#213766;}
	.st17{fill:#FFBE3B;}
	.st18{fill:#FF5CAB;}
	.st19{fill:#BA4141;}
	.st20{fill:#A3C3E8;}
	.st21{fill:#CEE5FF;}
	.st22{fill:#8DB0D9;}
	.st23{fill:#9FBFE3;}
	.st24{opacity:0.21;fill:#8288D4;}
	.st25{fill:#9AB9DB;}
	.st26{fill:#A8ACBA;}
	.st27{fill:#82A1C7;}
	.st28{fill:#C44545;}
	.st29{fill:#B03F3F;}
	.st30{fill:#A13939;}
	.st31{fill:#D94C4C;}
	.st32{fill:#F26D6D;}
	.st33{opacity:0.4;fill:#A8C4E5;}
	.st34{fill:#176BC7;}
	.st35{fill:#172747;}
	.st36{fill:#E0EFFF;}
	.st37{fill:#FAFCFF;}
	.st38{fill:none;stroke:#C2D8F0;stroke-width:2;stroke-linecap:round;stroke-linejoin:round;stroke-miterlimit:10;}
	.st39{fill:#BED5F0;}
	.st40{fill:none;stroke:#27427A;stroke-width:2;stroke-linecap:round;stroke-linejoin:round;stroke-miterlimit:10;}
</style>
<path class="st0" d="M172.2,83.4c-1.9-5.9-4-11.7-6.5-17.3C161,56,158.3,39.2,181,26.4c35-19.7,25,19.7,57.4,7.2
	c32.4-12.5,67.1-13,71.7,15.9c4.6,28.9,5,42.9,22.2,47.9c35,10.1,49.3,64.3,0.5,87.6s-60.5-8.7-81.6-7.8
	c-21.1,0.9-12.2-74.4-47.8-76.2C181.7,100,174.5,90.6,172.2,83.4z"/>
<path class="st1" d="M284.1,236.2l8.4,7.6l-5.3,2.3c0,0-5.5-8.6-5.3-9.2C282.1,236.2,284.1,236.2,284.1,236.2z"/>
<path class="st1" d="M284.3,236.4c0,0-1.4-3.4-2.7-4c-0.9-0.5-2.9-0.7-3.8-0.8c-0.2,0-0.2,0.2-0.1,0.3l1.2,0.9l-1.6-0.1l-0.1,1.1
	c-0.1,0.5,0.3,0.9,0.8,1l2.5,0.5c0,0-0.5,0.9,2,2.5C283.1,238.1,284.3,236.4,284.3,236.4z"/>
<path class="st0" d="M258.3,238.3c0,0,8,2.2,15.2,26l15-9.9c0,0,1.5-17-14-26.6L258.3,238.3z"/>
<path class="st0" d="M279.7,169.4c-7.7-4.6-17.1-4.9-24.9-0.7l-61.4,33.1l-17.4,9.3c-11.4,6.1-12.2,22-1.5,29.7l0,0
	c14.3,10.3,33.1,11.7,48.4,3.6l20.9-11l49.1-28.6c10.5-6.1,10.3-21.4-0.3-27.8L279.7,169.4z"/>
<path class="st2" d="M237.8,218.6L237.8,218.6c-5.3,0-9.7-4.3-9.7-9.7V86.4h19.4v122.5C247.4,214.3,243.1,218.6,237.8,218.6z"/>
<polygon class="st3" points="227.6,162.6 228.1,86.4 247.4,86.4 247.4,162.6 "/>
<linearGradient id="SVGID_1_" gradientUnits="userSpaceOnUse" x1="134.5015" y1="105.04" x2="249.1834" y2="105.04" gradientTransform="matrix(1 0 0 1 40.5819 0)">
	<stop  offset="7.541900e-02" style="stop-color:#2E90FE"/>
	<stop  offset="0.6392" style="stop-color:#2077E7"/>
	<stop  offset="1" style="stop-color:#1A6DDE"/>
</linearGradient>
<path class="st4" d="M267.5,47.1l-2.4-1.4c-7.9-4.3-16.8-3-25,1.7l0,0l-65.1,37.4L220,167l66.3-38.2c2.1-1.2,3.4-3.5,3.4-5.9V85.6
	C289.8,69.7,281.3,55,267.5,47.1z"/>
<path class="st5" d="M220,167l-58.3-33.7v-28c0-17.3,18.7-28.1,33.7-19.5l2.4,1.4c13.8,7.9,22.2,22.6,22.2,38.5V167z"/>
<path class="st6" d="M214.8,104.8l-53.1,28.5L220,167v-41.3C220,118.3,218.2,111.2,214.8,104.8z"/>
<path class="st7" d="M161.7,133.3l-18.5,10.9c-13.7,8.1-13.8,28-0.1,36.2l0,0c16.4,9.8,36.9,10,53.4,0.3L220,167v-3.7L161.7,133.3z"
	/>
<path class="st8" d="M162.1,133.3l-18.9,9.7c-13.7,8.1-13.8,25.5-0.1,33.7l0,0c16.4,9.8,36.9,10,53.4,0.3l23.5-13.8L162.1,133.3z"/>
<ellipse transform="matrix(0.5086 -0.861 0.861 0.5086 12.7369 281.0985)" class="st2" cx="252.6" cy="129.4" rx="7.5" ry="4.8"/>
<ellipse transform="matrix(0.5086 -0.861 0.861 0.5086 13.1397 283.882)" class="st9" cx="255.3" cy="130.4" rx="7.5" ry="4.8"/>
<polygon class="st10" points="253,75.8 270.4,67.1 270.4,79.7 253,89.6 "/>
<polygon class="st11" points="220,145.5 186.6,158.6 162.1,143.4 202.5,127.6 220,138.5 "/>
<path class="st2" d="M255.1,133.3L255.1,133.3c-1.2,0-2.1-1-2.1-2.1v-58c0-1.2,1-2.1,2.1-2.1l0,0c1.2,0,2.1,1,2.1,2.1v58
	C257.3,132.4,256.3,133.3,255.1,133.3z"/>
<path class="st1" d="M253,76.5L253,76.5c2.7,1.7,6,1.8,8.7,0.3l11.7-6.4l-0.1,13.4l-11.7,6.6c-2.7,1.5-6,1.5-8.6-0.1l0,0V76.5z"/>
<g>
	
		<ellipse transform="matrix(0.9996 -2.683879e-02 2.683879e-02 0.9996 -5.9704 8.8581)" class="st0" cx="327" cy="226.8" rx="16.8" ry="9.6"/>
	<path class="st12" d="M316.4,226.9l4.6-4.5c0.6-0.4,2-0.6,3-0.6c0.4,0,0.8,0.3,0.8,0.7l0.1,0.8c0.1,1.2,0,1.4-0.8,1.8l-4.9,2.9
		c-0.8,0.5-2.1,0.6-2.8,0.3l-0.2-0.1C315.5,228,315.6,227.4,316.4,226.9z"/>
	<path class="st1" d="M324.2,222.3c-0.1,1.6-3.5,2.1-3.5,0.4c-3.4-15.6-3.3-29.7-3.3-46l10.5-8.1c-1.4,14.1-3.3,26-3.5,38.2
		c0,1.6,0.7,3.3,0.7,4.8C325.2,214.8,324.1,219.3,324.2,222.3z"/>
	<path class="st1" d="M323.6,223.3c0,0-3.5,2.1-4.2,1.8c-0.6-0.3,1.8-2.5,1.8-2.5L323.6,223.3z"/>
	<path class="st12" d="M338.4,225.2l0.2-7.6c0.2-0.7,1.2-0.8,2-1.4c0.4-0.3,0.8-0.3,1.2,0l0.7,0.6c1,0.8,1.1,1,0.8,1.9l-1.7,5.5
		c-0.3,0.9-1.2,1.9-2,2.2l-0.2,0.1C338.5,226.7,338.1,226.1,338.4,225.2z"/>
	<path class="st1" d="M341.1,216.4c0,0-0.7,4.8-1.9,5c0,0-0.8,0.1-0.7-1.1c0-1.2-0.2-3.6-0.2-3.6L341.1,216.4z"/>
	<path class="st1" d="M340.9,215.9c0.8,1.1-0.7,3.3-1.9,2.5c-4.3-3.9-7.4-7-10.5-10.1c-2.3-2.3-1.8-8-3.6-11.3
		c-4.2-7.8,5.3-12.1,7.8-3.4c1,3.6-1.1,6.8-0.2,10c0.5,1.7,2.4,1.8,3.9,4.4C338.1,210.6,338.8,212.2,340.9,215.9z"/>
	<path class="st1" d="M297.1,165.3L297.1,165.3c1-0.4,1.5-1.5,1.1-2.3l-2-2.7c-0.4-0.8,0.1-1.5-0.8-1.1l0,0c-1,0.4-1.7,1-1.4,2.7
		l1,2.3c0.1,0.3,0.3,0.6,0.5,0.8C296,165.5,296.4,165.6,297.1,165.3z"/>
	<path class="st13" d="M330.7,140c1.7,7.3,12.5,2.6,9.7,14c-1.4,5.5-15.3,2.2-15.3,2.2l-2.9-16.4L330.7,140z"/>
	<path class="st14" d="M319.7,147.3l-13.2,9.2c-0.7,0.5-1.1,1.3-1.1,2.2c0,1.8,0.7,4.7,4.3,3.6C320.7,158.9,319.7,147.3,319.7,147.3
		z"/>
	<path class="st15" d="M330.8,167.9c2.8,6.3,1.2,19.8,3.5,31.5c0,0-7.6,5.3-16.8,0.9c-0.9-7.7-0.5-16.5-1.3-27L330.8,167.9z"/>
	<path class="st16" d="M327.4,201.9c4.9-7.3,2.7-30.4-0.3-33.3l3.5-1.6c6,9.8,3.2,20.3,5.5,32C336,199.1,330.9,201.7,327.4,201.9z"
		/>
	<path class="st17" d="M316.8,173.8c-0.2-2.8,0.7-2.9,0.7-6.2c0-1.3,0.1-3.1-0.1-5.4c-0.2-2.2-1.6-3.9-1-6.6
		c0.1-1.5,1.8-3.8,1.9-4.9c0.2-1.7,0.4-3.3,4-4.9l1.6,0.4c0.7,0.2,1.5,0.4,2.1,0.8c7.2,3.5,8.8,3.7,8.2,8c-0.1,2.2-1.4,0.5-1.8,1.9
		c-0.8,2.8-1.2,6.2-0.3,11.1c0.2,1,2.3,4.2,1.6,5.1C329.6,177.6,318.1,176.8,316.8,173.8z"/>
	<g>
		<path class="st18" d="M316.9,169.8C316.9,169.9,316.9,169.8,316.9,169.8L316.9,169.8z"/>
	</g>
	<path class="st1" d="M329.8,148.8c0,0-2.8,6.4-6.6,4.6s-0.9-7.5-0.9-7.5S326.3,146.9,329.8,148.8z"/>
	<path class="st1" d="M325.3,150l-0.3,0c-0.9,0.2-1.7-0.4-1.8-1.2l-0.5-4.6c-0.1-0.8,0.5-1.6,1.4-1.8l0.3,0c0.9-0.2,1.7,0.4,1.8,1.2
		l1.2,4.3C327.5,148.7,326.2,149.8,325.3,150z"/>
	<path class="st9" d="M329.1,148.4c0,0-2.5,6.6-6.3,4.7c-3-1.4-0.7-6.8-0.7-6.8l-0.8,0.1c0,0-2.7,6.4,1.7,8.2
		c3.8,1.6,7.2-5.8,7.2-5.8L329.1,148.4z"/>
	<path class="st19" d="M323,146.5c0,0,2.1,0,3.6-2c0,0-1.5,3-3.5,3.3L323,146.5z"/>
	<path class="st14" d="M333.7,173c0.7-0.8-1.4-4.1-1.6-5.1c-0.9-4.4-0.6-7.6,0-10.2l-1.9-2c-0.4,2.2-0.8,4.4-1.6,6.2
		c-0.7,0.5-2.9,2.2-4.6,1.8c0,0,2.6,1,4.1,0.9l0.7,11C330.8,175.1,332.5,174.3,333.7,173z"/>
	<path class="st14" d="M317.5,162.6l1.4-0.1c-0.7-0.2-1.4-1.2-1.6-1.5c0-0.1-0.1-0.1-0.1-0.1L317.5,162.6z"/>
	<path class="st1" d="M327.3,137.1c-0.7-1.2-1.8-1.4-2.9-0.8c-1-0.4-2.3,0.2-3.2,1.7c-1.3,2.1-1.2,5.1-0.5,7c0.4,1,0.9,1.7,3.4,1.4
		c1.7-0.3,2.6-0.8,3.6-2.3C329,142,328.4,138.9,327.3,137.1z"/>
	<path class="st13" d="M321.5,138.9c2.9,4.6,4.6,3.3,4.7,4c0,0,0.5,1.9,0.5,1.9c0.3,1.4,1.7,0.9,3.1,1.3l0,0c0,0,2.9-6.7-0.9-9.4
		c-3.8-2.8-9-0.2-8.5,3.5L321.5,138.9z"/>
	<path class="st1" d="M327.6,143.6c-0.3,0.5-1,0.7-1.5,0.5c-0.5-0.3-0.7-0.9-0.4-1.4c0.3-0.5,1-0.7,1.5-0.5
		C327.7,142.4,327.9,143,327.6,143.6z"/>
	<g>
		<g>
			<path class="st9" d="M321.8,145.5L321.8,145.5c-0.4-0.2-0.8-0.9-0.8-1.6l1.6,0.6C322.6,145.2,322.2,145.6,321.8,145.5z"/>
		</g>
	</g>
	<g>
		<polygon class="st20" points="327.6,190.2 295.4,175.4 295.8,150.7 328,165.4 		"/>
		<polygon class="st21" points="295.8,150.7 308.6,172.3 328,165.4 		"/>
	</g>
	<path class="st1" d="M325.7,178.6L325.7,178.6c0.9,0.6,2,0.6,2.6-0.1l1.4-3.1c0.6-0.7,0.1-0.3-0.8-0.9l0,0
		c-0.9-0.6-0.4-1.4-1.8-0.2l-1.5,2c-0.2,0.3-0.4,0.6-0.5,0.9C324.9,177.7,325,178.1,325.7,178.6z"/>
	<path class="st1" d="M334.5,167.7l-6.8,6.3l1.1,1.6l9-4.3c0.8-0.4,1.4-1.1,1.5-1.9l-1-4.5L334.5,167.7z"/>
	<path class="st17" d="M330,156.2l3.4,10c0.5,2.5,2.3,2,3.2,1.9c1.4-0.3,2.7-1.4,2.3-3.2c-1.1-4.8-3.9-11.1-5.2-13.1
		c-0.6-0.9-1.6-0.9-2.9-1.4c-0.2-0.1,0.1,1-0.1,1.2l0,0C329.7,152.8,329.4,154.6,330,156.2z"/>
	<polygon class="st22" points="310.1,171.8 310.9,173.4 328,165.4 	"/>
</g>
<g>
	<g>
		<g>
			<polygon class="st23" points="151.3,167.8 115.5,160.3 115.5,135.5 151.3,143 			"/>
			<polygon class="st0" points="115.5,135.5 130,154.2 151.3,143 			"/>
		</g>
		<polygon class="st22" points="130,154.2 132.5,155.3 151.3,143 		"/>
	</g>
	<path class="st24" d="M142.1,260.2c-4.6-2.3-12.3-2.2-17.2,0.2c-0.8,0.4-1.5,0.9-2.1,1.4c-3.2-0.9-7.5-0.7-10.4,0.8
		c-3.5,1.7-3.7,4.4-0.4,6c3.1,1.6,8.2,1.6,11.7,0c0.2,0.1,0.4,0.3,0.7,0.4c4.6,2.3,12.3,2.2,17.2-0.2
		C146.4,266.3,146.7,262.5,142.1,260.2z"/>
	<path class="st1" d="M121,178.5c-0.5-1.4-2.8-7.5-2.8-7.5l-4.8,1.9l3.2,11.4L121,178.5z"/>
	<path class="st25" d="M120.3,175.9c0,0,3.4,8.4,4.3,11c0.9,2.6-5.6,4.9-5.6,4.9l-5.4-12.9L120.3,175.9z"/>
	<path class="st15" d="M113.8,260.6l2.6,0.3c1.7-0.6,2.5-1.2,3.4-0.3l0.2,0.2c0.4,0.6,0.3,1.7-0.3,2.2l-4.3,3.6
		c-0.9,0.5-2.6,0.1-2.9-1.2c0,0-0.3-3.6,0.1-3.8C113.5,261.2,113.1,261,113.8,260.6z"/>
	<polygon class="st15" points="120.1,225.4 130,227.1 130,216.7 120.1,215 	"/>
	<path class="st15" d="M133.2,262.5l3.5,0.3c2.5-0.6,3.8-1.1,4.7-0.3l0.3,0.2c0.4,0.6,0,1.6-1,2.1l-6.7,3.3
		c-1.3,0.4-2.8,0.1-2.9-1.1c0,0-0.3-3.4,0.3-3.6C132.6,263.1,132.1,262.9,133.2,262.5z"/>
	<path class="st26" d="M135.1,264c0.1,1.4-3.4,1.7-3.5,0.2l-0.3-4.6l3.5-0.2L135.1,264z"/>
	<path class="st15" d="M135.6,259.8c-1.1,1.7-4.1,2-4.8,0.9c-0.9-6.5-3.7-13.3-1.9-22.5l-5.2-27.1l12.4,1.4l-0.3,29L135.6,259.8z"/>
	<path class="st26" d="M116.1,262.7c-0.2,1.4-3.7,0.9-3.4-0.6l0.7-4.6l3.4,0.6L116.1,262.7z"/>
	<path class="st15" d="M117.5,258.7c-1.4,1.4-4.4,1-4.9-0.2c0.6-6.6-0.6-13.8,3.3-22.4l1.1-27.5l11.8,4.2l-6.9,28.2L117.5,258.7z"/>
	<path class="st1" d="M129.6,180.8c0.2,2.8-1.4,4.2-3.6,3.2c-2.2-1.1-3.2-4.4-3.4-7.3c-0.2-2.8,1.6-3.1,2.6-2.9
		C127.7,174.2,129.4,178,129.6,180.8z"/>
	<path class="st1" d="M133.2,179.6c-0.1,2.8-2.6,4.5-4.7,3.2c-2.1-1.3-3.7-4.6-3.6-7.4c0.1-2.8,1.8-4.1,3.9-2.8
		C130.8,173.9,133.3,176.8,133.2,179.6z"/>
	<path class="st1" d="M126.5,188.2l-0.3-0.1c-1-0.3-1.6-1.3-1.3-2.2l1.4-5.5c0.3-1,1.3-1.6,2.2-1.3l0.3,0.1c1,0.3,1.6,1.3,1.3,2.2
		l-0.6,5.5C129.3,187.9,127.4,188.5,126.5,188.2z"/>
	<path class="st15" d="M123.6,182.1c0,0,0.5,1.9,4,1.5c2.6-0.3,0.7-4.8,3.1-5.9c3.2-1.5,2-4.7,0.5-5.7c-1.4-1-3.2-0.4-5.5,0.3
		C123.4,173.1,120.2,174.9,123.6,182.1z"/>
	<circle class="st1" cx="130.2" cy="178.8" r="1.2"/>
	<path class="st25" d="M116,214.5c-0.4-7.6,0.9-14,0.5-20c0.1-11.4,1.3-9,5-9.8l2.5-0.3c0.8,0.1,1.5,0.5,2.3,0.7
		c3.2,0.8,5.3,1,7.6,2.2c2.1,1.1,2.2,4.1,2.2,6.6c0.6,7.4,0.7,18.4,0.8,22.1C135.8,221.2,118,218,116,214.5z"/>
	<path class="st19" d="M130.7,183.1l-0.5-0.6c0,0,0.6,0.4,1.6,0C131.8,182.5,131.3,183,130.7,183.1z"/>
	<path class="st27" d="M137.1,194.8l-1.9,2c-2.2,9-1.2,18.1-4.9,21.9c2.2,0,4.3-0.3,5.8-1.4c0.1,0,0.8-0.6,0.9-1.7L137.1,194.8z"/>
	<path class="st9" d="M123.7,184.3c0,0-0.6,1.7,1.3,2.3c1.9,0.6,5.2-0.5,5.2-0.5S128.1,183.8,123.7,184.3z"/>
	<path class="st15" d="M130.7,179.7L130.7,179.7c-0.2,0-0.4-0.1-0.5-0.4l-0.7-2.6c0-0.2,0.6-0.1,0.8-0.1l0,0c0.2,0,0.9-0.2,0.9,0
		l-0.1,2.7C131.1,179.5,130.9,179.7,130.7,179.7z"/>
	<path class="st1" d="M115.9,158.7c0,0-3,11-2.6,14c0.3,3,5.2-0.6,5.2-0.6l0.6-11.9L115.9,158.7z"/>
	<path class="st1" d="M115.6,156L115.6,156c1-0.5,2.1-0.3,2.5,0.5l0.8,3.3c0.4,0.8,0,0.3-0.9,0.8h0c-1,0.5-0.7,1.3-1.8,0l-1.1-2.3
		c-0.1-0.3-0.3-0.6-0.3-0.9C114.7,156.8,114.8,156.4,115.6,156z"/>
	<path class="st1" d="M151.8,164.8c0,0-0.9,10.3-2.3,12.9c-1.4,2.6-5.7-1.1-5.7-1.1l4.9-11.5L151.8,164.8z"/>
	<path class="st1" d="M151.8,161.1L151.8,161.1c-1-0.5-2.1-0.2-2.5,0.6l-0.6,3.4c-0.4,0.8,0,0.3,1,0.7l0,0c1,0.5,0.8,1.3,1.8-0.1
		l1-2.3c0.1-0.3,0.2-0.6,0.2-1C152.7,161.9,152.6,161.5,151.8,161.1z"/>
	<path class="st1" d="M144.3,187.3c0.7-1.3,4.6-9,4.6-9l-4.6-2.5l-9.8,12.9L144.3,187.3z"/>
	<path class="st25" d="M137,197.5l8.7-11.4c2.3-1.4-5.3-7-7.7-5.1c-0.2,0.1-7.6,8.4-7.6,8.4S132.3,197.9,137,197.5z"/>
</g>
<g>
	<polygon class="st0" points="208.6,270.3 252,245.2 225.1,229.7 198.1,271.8 	"/>
	<g>
		<polygon class="st28" points="198.1,270.3 241.5,245.2 214.7,229.7 171.3,254.8 		"/>
		<polygon class="st29" points="171.3,254.8 171.3,256 198.1,271.8 198.1,270.3 		"/>
		<polygon class="st30" points="241.5,246.8 198.1,271.8 198.1,270.3 241.5,245.2 		"/>
	</g>
	<g>
		<polygon class="st28" points="198.1,266.8 241.5,241.8 214.7,226.3 171.3,251.3 		"/>
		<polygon class="st29" points="171.3,251.3 171.3,252.6 198.1,268.3 198.1,266.8 		"/>
		<polygon class="st30" points="241.5,243.3 198.1,268.3 198.1,266.8 241.5,241.8 		"/>
	</g>
	<polygon class="st1" points="198.1,263.2 241.5,238.2 214.7,222.7 171.3,247.7 	"/>
	<polygon class="st29" points="171.3,247.7 171.3,249 198.1,264.7 198.1,263.2 	"/>
	<polygon class="st30" points="241.5,239.7 198.1,264.7 198.1,263.2 241.5,238.2 	"/>
	<polygon class="st31" points="198.1,263.2 203.7,240.2 211.8,235.6 241.5,238.2 	"/>
	<polygon class="st32" points="171.3,247.7 214,244 214.7,222.7 	"/>
	<polygon class="st31" points="171.6,247.7 209.3,248.1 202.6,245 	"/>
</g>
<polygon class="st1" points="294.2,240.3 291.5,234.5 287.9,234.9 289.8,240.9 "/>
<path class="st1" d="M293.1,227.7c0,0,1.8,10-5,10.4c0,0-2.7,1-2.7-6.1C285.3,225,290.2,226,293.1,227.7z"/>
<path class="st1" d="M287.3,238c0,0,1.7-1.2,2.6-3.2l2.9,1.7l1.2,3.4l-4.4,0.5l-0.6-2.4C289,238.1,287.8,238.3,287.3,238z"/>
<path class="st13" d="M292.3,237.1l-0.5,0c-0.4,0.1-1.2-0.9-1.3-1.3c-0.3-0.7-1.2-1.1-1.5-2.2c-0.1-0.4-1-0.2-1.2-1
	c-0.4-1.5-2.2-2.9-2.2-2.9s-0.9-0.3-0.7-1c0.3-1.1,0.9-0.9,1.6-1.5c1.5-1.3,7.1-1.9,8.7,1.7C297.1,232.9,292.3,237.1,292.3,237.1z"
	/>
<path class="st1" d="M288,234.1c0,0.7,0.5,1.2,1.1,1.2c0.6,0,1-0.6,0.9-1.3s-0.5-1.2-1.1-1.2C288.4,232.8,288,233.4,288,234.1z"/>
<ellipse transform="matrix(0.9989 -4.628862e-02 4.628862e-02 0.9989 -12.6051 13.7135)" class="st33" cx="289.8" cy="279" rx="16.7" ry="8.8"/>
<path class="st1" d="M277.2,270.5c0,0,0.1,6.4,16,11.1l1-1.5l-13.5-13.5L277.2,270.5z"/>
<path class="st16" d="M293,282.2l2.9,1.3c1.7,1.5,2.4,2.5,3.5,2.3l0.3-0.1c1-0.2,1.2-1.2,0.4-2.1l-3.3-4.9c-0.8-0.9-2.3-1.2-3.3-0.7
	c0,0-0.6,0.3-0.9,2.3C292.5,281.4,292.4,281.4,293,282.2z"/>
<path class="st1" d="M273.4,271.3c0,0-3.5,6.6,16.5,13.8l1.4-2.8l-13.8-10.8L273.4,271.3z"/>
<path class="st16" d="M299.4,262.6l-17,1c-1.9,0.1-3.8,0.8-5.3,2c-3.2,2.5-7.3,7,0.1,10l15,5.1c3.2,1.1,6.2,1.1,8.3-1.8
	c1.9-2.5,2-8.3,0.7-10.9L299.4,262.6z"/>
<path class="st15" d="M277.2,265.6c-1.4,1.1-2.9,2.5-3.7,4.1l9,3.1c2.4,0.5,4.7,0,6.4-2.3c1.2-1.6,1.7-4.6,1.5-7.2l-8,0.5
	C280.5,263.8,278.7,264.4,277.2,265.6z"/>
<path class="st16" d="M289.8,285.3l2.8,1.3c1.7,1.5,2.4,2.5,3.4,2.2l0.3-0.1c1-0.2,1.2-1.2,0.4-2.1l-1.4-1.8
	c-0.3-0.3-0.5-0.7-0.7-1.1l-1.1-1.9c-0.8-0.9-2.2-1.1-3.3-0.7c0,0-0.6,0.3-0.9,2.2C289.2,284.6,289.1,284.6,289.8,285.3z"/>
<path class="st34" d="M299.7,261.2c0,0,0-4.2,0.1-6.8c0.2-3.8,0.4-10.6,0.4-10.7c0-2,0.8-3.2-2.5-5l-3.6-0.9l-4.7,2.4
	c0,0-6.8,5-6.4,9.7c0.2,2.2,2.4,5.5,3.3,8.5l-0.9,5.8c0.4,4.5,12.8,2.2,14.7-1.5C300.5,261.9,300,261.2,299.7,261.2z"/>
<path class="st5" d="M286.7,248.4c2.5,4.6,2.9,17,3.2,18.2c-2.5,0-4.5-0.7-4.7-2.5l0.9-5.8c-0.8-3-3-6.3-3.3-8.5
	c-0.1-1.6,0.5-3.2,1.5-4.6c0.3-0.2,0.4-0.3,0.4-0.3S285.4,246.2,286.7,248.4z"/>
<path class="st1" d="M276.1,254c-3.9-3.5-7.8-5.3-9.8-8.1l-1.3,1.8c0,0,8.7,12.4,11,11.1C279.2,256.8,276.1,254,276.1,254z"/>
<path class="st1" d="M287.3,246.6c0,0-8.2,11.1-10.7,11.4c-2.4,0.2-1.9-3.9-1.9-3.9l9.4-9.4L287.3,246.6z"/>
<path class="st9" d="M278.5,249.8l-1,1.1c0,0,0.8,2.7,3.8,3.5l1-1.1L278.5,249.8z"/>
<path class="st34" d="M288.4,241.2c0,0-3.5,1-5.7,4c-1.2,1.7-4.3,4.7-4.3,4.7c-0.1,2,1.2,3,4.4,4.3l10.3-11.7L288.4,241.2z"/>
<path class="st9" d="M288.2,241.2l1-1.9l7.5-1.6c0,0-0.7,3.4-4.1,2.9C290.8,240.1,288.2,241.2,288.2,241.2z"/>
<path class="st1" d="M265.1,243.2c0,0.3,0.3,1,0.4,1.5c0.2,1.2,0.2,2.4,0.2,2.4s1,0.8,1.5-0.1c0.6-1-0.7-2.5-0.7-2.5l-1-2
	C265.6,242.3,265.3,242.1,265.1,243.2z"/>
<path class="st1" d="M262.3,244.6c-0.1-0.4-0.1-0.8-0.1-0.8c-0.1-0.7,0-1.3,0.5-1.9l1.4,1.6c0.9,0.5,1.6,1,1.7,1.6l0.5,0.2
	c0.1,0,0.1,0.1,0.1,0.2l0.3,2.3c0,0.2-0.2,0.3-0.3,0.2c-0.2-0.1-0.4-0.3-0.7-0.5l-0.2,0.8c0,0-2-1.8-2.7-2.7c0,0,0,0,0,0
	C262.5,245.2,262.3,244.9,262.3,244.6z"/>
<path class="st35" d="M296.7,286.7l-1.4-1.8c-0.3-0.3-0.5-0.7-0.7-1.1l-1.1-1.9c-0.7-0.8-2-1.1-3-0.8c0,0.1-0.1-0.1,0,0
	c-0.2,0.5,1,2.4,2.7,4.2l2.4,3.4c0,0,0,0.1,0.1,0.1c0.1,0,0.2,0,0.3,0l0.3-0.1C297.4,288.5,297.5,287.6,296.7,286.7z"/>
<polygon class="st23" points="220,141.8 186.6,154.9 162.1,139.7 202.5,123.9 220,134.8 "/>
<polygon class="st0" points="162.1,139.7 194.5,139.4 202.5,123.9 "/>
<path class="st36" d="M220,125.7c0-3-0.3-6-0.9-9l-35.1,8l18.6,17.3l17.4-4V125.7z"/>
<path class="st37" d="M219.9,123.9l-4.2,4.4l-31.7-3.5l35.1-8C219.1,116.8,220.4,121.1,219.9,123.9z"/>
<path class="st38" d="M162.1,133.3v-28.9c0-17.3,18.7-28.1,33.7-19.5l2.4,1.4c13.8,7.9,22.2,22.6,22.2,38.5V166"/>
<path class="st13" d="M292.4,228.5c0,0,3.9-3.7,6.2,1.8c2.3,5.5-0.1,11.3,3.8,14.8c0,0-7.4-0.9-7.7-5.7c-0.2-4.8,0.7-8.7-1.9-9.2
	C290.1,229.8,292.4,228.5,292.4,228.5z"/>
<polygon class="st9" points="272.2,108.5 307,102.8 285.1,115.4 "/>
<polygon class="st9" points="307,102.8 289.2,117.4 300.2,124.4 "/>
<polygon class="st39" points="285.1,115.4 286.7,123.7 289.2,117.4 307,102.8 "/>
<polygon class="st20" points="286.7,123.7 293,119.8 289.2,117.4 "/>
<g>
	<g>
		<path class="st9" d="M238.2,172.5c-0.1,0-0.1,0-0.2,0c-1.3-0.5-2-0.8-2-0.8c-0.2-0.1-0.3-0.3-0.2-0.5c0.1-0.2,0.3-0.3,0.5-0.2
			c0,0,0.7,0.4,2,0.8c0.2,0.1,0.3,0.3,0.2,0.5C238.4,172.4,238.3,172.5,238.2,172.5z"/>
	</g>
	<g>
		<path class="st9" d="M250.8,173.7c-0.2,0-0.4-0.1-0.4-0.3c0-0.2,0.1-0.4,0.3-0.4c1.4-0.3,2.7-0.8,3.9-1.4c0.2-0.1,0.4,0,0.5,0.1
			c0.1,0.2,0,0.4-0.1,0.5C253.6,172.8,252.2,173.4,250.8,173.7C250.8,173.7,250.8,173.7,250.8,173.7z M246.5,174.1
			C246.5,174.1,246.5,174.1,246.5,174.1c-1.5,0-2.9-0.2-4.4-0.5c-0.2,0-0.3-0.2-0.3-0.4c0-0.2,0.2-0.3,0.4-0.3
			c1.4,0.3,2.8,0.4,4.2,0.5c0.2,0,0.4,0.2,0.4,0.4C246.8,173.9,246.7,174,246.5,174.1z M258.2,169.7c-0.1,0-0.2,0-0.3-0.1
			c-0.1-0.1-0.1-0.4,0-0.5c1-0.9,1.8-2,2.6-3.3c0.1-0.2,0.3-0.2,0.5-0.1c0.2,0.1,0.2,0.3,0.1,0.5c-0.8,1.3-1.7,2.4-2.7,3.4
			C258.3,169.6,258.3,169.7,258.2,169.7z M262.8,162.6c-0.1,0-0.1,0-0.2,0c-0.2-0.1-0.3-0.3-0.2-0.5l0.1-0.2
			c0.5-1.2,0.9-2.5,1.4-3.8c0.1-0.2,0.3-0.3,0.5-0.2c0.2,0.1,0.3,0.3,0.2,0.5c-0.4,1.3-0.9,2.6-1.4,3.8l-0.1,0.2
			C263,162.5,262.9,162.5,262.8,162.6z M265.4,154.5c-0.1,0-0.1,0-0.2,0c-0.2-0.1-0.3-0.2-0.3-0.4c0.3-1.3,0.7-2.6,1-4.1
			c0-0.2,0.2-0.3,0.4-0.3c0.2,0,0.3,0.2,0.3,0.4c-0.3,1.5-0.7,2.9-1,4.2C265.7,154.3,265.6,154.4,265.4,154.5z M267.3,146.1
			c0,0-0.1,0-0.1,0c-0.2,0-0.3-0.2-0.3-0.4l0.1-0.4c0.3-1.3,0.5-2.5,0.8-3.8c0-0.2,0.2-0.3,0.4-0.3c0.2,0,0.3,0.2,0.3,0.4
			c-0.3,1.2-0.5,2.4-0.8,3.7l-0.1,0.4C267.6,146,267.5,146.1,267.3,146.1z M269.3,137.8c-0.1,0-0.1,0-0.2,0
			c-0.2-0.1-0.3-0.3-0.2-0.4c0.5-1.5,1-2.8,1.6-4c0.1-0.2,0.3-0.3,0.5-0.2c0.2,0.1,0.3,0.3,0.2,0.5c-0.6,1.2-1.1,2.4-1.5,3.9
			C269.5,137.7,269.4,137.8,269.3,137.8z M273.1,130.3c-0.1,0-0.2,0-0.3-0.1c-0.2-0.1-0.2-0.3-0.1-0.5c0.9-1.1,1.9-2.1,3-3.1
			c0.2-0.1,0.4-0.1,0.5,0c0.1,0.2,0.1,0.4,0,0.5c-1.1,0.9-2.1,1.9-2.9,3C273.2,130.2,273.1,130.2,273.1,130.3z"/>
	</g>
	<g>
		<path class="st9" d="M279.5,124.7c-0.1,0-0.3,0-0.4-0.2c-0.1-0.2,0-0.4,0.1-0.5c0.6-0.4,1.2-0.7,1.9-1.1c0.2-0.1,0.4,0,0.5,0.2
			c0.1,0.2,0,0.4-0.2,0.5c-0.6,0.3-1.3,0.7-1.9,1C279.6,124.7,279.6,124.7,279.5,124.7z"/>
	</g>
</g>
<path class="st14" d="M165.3,99.8c0.4-6.9-4.5-14.5-10.9-17.1c-2.6-1.1-5-1.1-7.1-0.4h0l0,0c-0.6,0.2-1.2,0.5-1.7,0.9l-5.6,3
	l2.1,3.7c0,0.1,0,0.3,0,0.4c-0.4,6.4,3.9,13.6,9.8,16.6l2.4,4.1l6.2-3.4l0,0C163.3,106.5,165.1,103.7,165.3,99.8z"/>
<ellipse transform="matrix(0.8398 -0.5429 0.5429 0.8398 -29.9007 95.8449)" class="st17" cx="147.5" cy="98.6" rx="10.2" ry="14.4"/>
<g>
	<path class="st9" d="M143,100.9l2.9,1.1v-9.5l-2.3-0.9v-1.1c1.2,0.2,2,0.2,2.7,0.1l1.3,0.5v11.5l2.7,1v1.4l-7.2-2.7V100.9z"/>
</g>
<line class="st40" x1="129.8" y1="83.6" x2="134.1" y2="85.2"/>
<line class="st40" x1="143" y1="75.4" x2="143.2" y2="79.4"/>
<line class="st40" x1="135.1" y1="76.8" x2="137.6" y2="80.7"/>
</svg>
