<?xml version="1.0" encoding="utf-8"?>
<!-- Generator: Adobe Illustrator 25.4.0, SVG Export Plug-In . SVG Version: 6.00 Build 0)  -->
<svg version="1.1" id="Layer_3" xmlns="http://www.w3.org/2000/svg" xmlns:xlink="http://www.w3.org/1999/xlink" x="0px" y="0px"
	 viewBox="0 0 183 158" style="enable-background:new 0 0 183 158;" xml:space="preserve">
<style type="text/css">
	.st0{fill:#353F49;}
	.st1{fill:#474F59;}
	.st2{fill:#FFFFFF;}
	.st3{fill:#DAB602;}
	.st4{fill:#DEE2E6;}
	.st5{fill:#232E38;}
	.st6{fill:#F2F2F2;}
	.st7{fill:#CCCBCA;}
	.st8{fill:#F77B55;}
	.st9{fill:#EE643C;}
</style>
<g>
	<g>
		<g>
			<g>
				<path class="st0" d="M130.3,95.9c0,18.9-15.3,34.3-34.3,34.3c-18.9,0-34.3-15.3-34.3-34.3c0-18.9,15.3-34.3,34.3-34.3
					C115,61.7,130.3,77,130.3,95.9z"/>
				<path class="st0" d="M122.6,95.9c0,18.9-15.3,34.3-34.3,34.3c-18.9,0-34.3-15.3-34.3-34.3c0-18.9,15.3-34.3,34.3-34.3
					C107.3,61.7,122.6,77,122.6,95.9z"/>
			</g>
			<g>
				<path class="st1" d="M124.6,94.8c0,22.6-13.2,42.2-32.4,51.3c-19.2-9.2-32.4-28.7-32.4-51.3c0-17.9,14.5-32.4,32.4-32.4
					C110.1,62.4,124.6,76.9,124.6,94.8z"/>
				<path class="st2" d="M115.9,105.8c0,16.5-9.7,30.8-23.7,37.5c-14-6.7-23.7-21-23.7-37.5c0-13.1,10.6-23.7,23.7-23.7
					C105.3,82.1,115.9,92.7,115.9,105.8z"/>
			</g>
			<g>
				<g>
					<path class="st0" d="M92.2,54.4c0,9.9-8,17.9-17.9,17.9c-9.9,0-17.9-8-17.9-17.9c0-9.9,8-17.9,17.9-17.9
						C84.2,36.5,92.2,44.5,92.2,54.4z"/>
					<path class="st2" d="M92.2,54.4c0,8.5-6.9,15.4-15.4,15.4c-8.5,0-15.4-6.9-15.4-15.4c0-8.5,6.9-15.4,15.4-15.4
						C85.3,39,92.2,45.9,92.2,54.4z"/>
				</g>
				<g>
					<path class="st0" d="M128,54.4c0,9.9-8,17.9-17.9,17.9c-9.9,0-17.9-8-17.9-17.9c0-9.9,8-17.9,17.9-17.9
						C120,36.5,128,44.5,128,54.4z"/>
					<path class="st2" d="M123,54.4c0,8.5-6.9,15.4-15.4,15.4c-8.5,0-15.4-6.9-15.4-15.4c0-8.5,6.9-15.4,15.4-15.4
						C116.1,39,123,45.9,123,54.4z"/>
				</g>
			</g>
			<g>
				<g>
					<path class="st3" d="M87.5,51.4c0,4.7-3.8,8.5-8.5,8.5c-4.7,0-8.5-3.8-8.5-8.5c0-4.7,3.8-8.5,8.5-8.5
						C83.7,42.9,87.5,46.7,87.5,51.4z"/>
					<path class="st0" d="M82.9,51.4c0,2.2-1.8,3.9-3.9,3.9c-2.2,0-3.9-1.8-3.9-3.9s1.8-3.9,3.9-3.9C81.2,47.5,82.9,49.2,82.9,51.4z
						"/>
					<path class="st2" d="M78.2,48.9c0,0.9-0.8,1.7-1.7,1.7c-0.9,0-1.7-0.8-1.7-1.7c0-0.9,0.8-1.7,1.7-1.7
						C77.4,47.2,78.2,48,78.2,48.9z"/>
					<path class="st2" d="M77.4,52.3c0,0.3-0.2,0.5-0.5,0.5c-0.3,0-0.5-0.2-0.5-0.5c0-0.3,0.2-0.5,0.5-0.5
						C77.1,51.8,77.4,52,77.4,52.3z"/>
				</g>
				<g>
					<path class="st3" d="M97,51.4c0,4.7,3.8,8.5,8.5,8.5c4.7,0,8.5-3.8,8.5-8.5c0-4.7-3.8-8.5-8.5-8.5C100.8,42.9,97,46.7,97,51.4z
						"/>
					<path class="st0" d="M109.4,51.4c0,2.2-1.8,3.9-3.9,3.9s-3.9-1.8-3.9-3.9s1.8-3.9,3.9-3.9S109.4,49.2,109.4,51.4z"/>
					<path class="st2" d="M104.7,48.9c0,0.9-0.8,1.7-1.7,1.7c-0.9,0-1.7-0.8-1.7-1.7c0-0.9,0.8-1.7,1.7-1.7
						C103.9,47.2,104.7,48,104.7,48.9z"/>
					<path class="st2" d="M103.8,52.3c0,0.3-0.2,0.5-0.5,0.5c-0.3,0-0.5-0.2-0.5-0.5c0-0.3,0.2-0.5,0.5-0.5
						C103.6,51.8,103.8,52,103.8,52.3z"/>
				</g>
			</g>
			<g>
				<path class="st0" d="M121.4,35.5c1-6,3.4-11.5,6.9-16.1c-21.1,8-36.1,28.4-36.1,52.3C92.2,53.9,104.7,39.1,121.4,35.5z"/>
				<path class="st0" d="M63,35.5c-1-6-3.4-11.5-6.9-16.1c21.1,8,36.1,28.4,36.1,52.3C92.2,53.9,79.7,39.1,63,35.5z"/>
			</g>
			<path class="st4" d="M112.1,28.8c-12,10.1-19.7,25.2-19.9,42.1C92,54,84.3,38.9,72.3,28.8c6.4,1.3,13.1,2,19.9,2
				C99,30.8,105.7,30.1,112.1,28.8z"/>
			<path class="st3" d="M96.2,65.7c-0.4-0.4-0.7-0.9-1-1.4c-1.9-2.8-3-6.3-3-10c0,3.7-1.1,7.1-3,9.9c-0.3,0.5-0.7,0.9-1,1.4
				c2.5,4.8,3.9,10.3,4,16.1c0,0.1,0,0.2,0,0.3c0-0.1,0-0.1,0-0.2c0,0.1,0,0.1,0,0.2c0-0.1,0-0.2,0-0.3C92.3,76,93.8,70.6,96.2,65.7
				z"/>
			<g>
				<g>
					<polygon class="st0" points="109.7,17.7 74.7,17.7 74.7,29.3 92.2,37.8 109.7,29.3 					"/>
					<rect x="52.8" y="15.1" class="st1" width="39.4" height="2.6"/>
					<rect x="92.2" y="15.1" class="st5" width="39.4" height="2.6"/>
				</g>
				<g>
					<rect x="129.6" y="17.7" class="st0" width="1" height="13.3"/>
					<polygon class="st0" points="131.3,39.8 130.5,31 129.6,31 128.8,39.8 129.2,38.9 129.6,39.8 130,38.9 130.5,39.8 130.9,38.9 
											"/>
					<path class="st5" d="M131.4,31c0,0.7-0.6,1.3-1.3,1.3c-0.7,0-1.3-0.6-1.3-1.3c0-0.7,0.6-1.3,1.3-1.3
						C130.8,29.7,131.4,30.3,131.4,31z"/>
				</g>
			</g>
			<g>
				<g>
					<path class="st1" d="M131.7,35.9c1.2,0,2.5,0.1,3.7,0.2c-3.4-1.4-7-2.2-10.8-2.2c-14.5,0-26.8,11.5-30.8,27.3
						C99,46.5,114,35.9,131.7,35.9z"/>
					<path class="st1" d="M52.7,35.9c-1.2,0-2.5,0.1-3.7,0.2c3.4-1.4,7-2.2,10.8-2.2c14.5,0,26.8,11.5,30.8,27.3
						C85.4,46.5,70.4,35.9,52.7,35.9z"/>
				</g>
			</g>
		</g>
		<g>
			<polygon class="st6" points="38.2,135.5 21.7,130.5 38.2,125.4 			"/>
			<polygon class="st7" points="21.7,130.5 38.2,135.5 38.2,132.3 			"/>
			<rect x="38.2" y="125.4" class="st8" width="108.1" height="10"/>
			<rect x="38.2" y="132.3" class="st9" width="108.1" height="3.1"/>
			<polygon class="st0" points="28.2,132.4 21.7,130.5 28.2,128.5 			"/>
			<polygon class="st5" points="28.2,132.4 21.7,130.5 28.2,131.2 			"/>
			<rect x="146.3" y="125.4" class="st6" width="5.8" height="10"/>
			<rect x="146.3" y="132.3" class="st7" width="5.8" height="3.1"/>
			<path class="st1" d="M157.7,135.5c1.3,0,2.6-0.5,3.6-1.5c1-1,1.5-2.3,1.5-3.5l0,0c0-1.3-0.5-2.6-1.5-3.5c-1-1-2.3-1.5-3.6-1.5
				h-5.6v10H157.7z"/>
			<path class="st5" d="M161.3,126.9c-0.6-0.6-1.3-0.9-2-1.2c0.2,0.5,0.3,1,0.3,1.6c0,1.3-0.5,2.6-1.5,3.5c-1,1-2.3,1.5-3.5,1.5
				h-2.5v3.1h5.6c1.3,0,2.6-0.5,3.6-1.5c1-1,1.5-2.3,1.5-3.5C162.7,129.2,162.2,127.9,161.3,126.9z"/>
		</g>
		<g>
			<g>
				<path class="st1" d="M73.4,123.1c-1.1,0-2,0.9-2,2c0,2,2,7.7,2,7.7s2-5.7,2-7.7C75.4,124,74.5,123.1,73.4,123.1z"/>
				<path class="st1" d="M77.4,123.1c-1.1,0-2,0.9-2,2c0,2,2,7.7,2,7.7s2-5.7,2-7.7C79.3,124,78.4,123.1,77.4,123.1z"/>
				<path class="st1" d="M81.3,123.1c-1.1,0-2,0.9-2,2c0,2,2,7.7,2,7.7s2-5.7,2-7.7C83.2,124,82.4,123.1,81.3,123.1z"/>
			</g>
			<g>
				<path class="st1" d="M103.2,123.1c-1.1,0-2,0.9-2,2c0,2,2,7.7,2,7.7s2-5.7,2-7.7C105.1,124,104.2,123.1,103.2,123.1z"/>
				<path class="st1" d="M107.1,123.1c-1.1,0-2,0.9-2,2c0,2,2,7.7,2,7.7s2-5.7,2-7.7C109,124,108.2,123.1,107.1,123.1z"/>
				<path class="st1" d="M111,123.1c-1.1,0-2,0.9-2,2c0,2,2,7.7,2,7.7s2-5.7,2-7.7C113,124,112.1,123.1,111,123.1z"/>
			</g>
		</g>
	</g>
</g>
</svg>
